<?xml version="1.0" encoding="UTF-8" standalone="no"?>
<!DOCTYPE svg PUBLIC "-//W3C//DTD SVG 1.1//EN" "http://www.w3.org/Graphics/SVG/1.1/DTD/svg11.dtd">
<svg width="100%" height="100%" viewBox="0 0 124 124" version="1.1" xmlns="http://www.w3.org/2000/svg" xmlns:xlink="http://www.w3.org/1999/xlink" xml:space="preserve" xmlns:serif="http://www.serif.com/" style="fill-rule:evenodd;clip-rule:evenodd;stroke-linejoin:round;stroke-miterlimit:2;">
    <g id="Artboard1" transform="matrix(1,0,0,1,0,11.2728)">
        <rect x="0" y="-11.273" width="123.855" height="123.855" style="fill:none;"/>
        <clipPath id="_clip1">
            <rect x="0" y="-11.273" width="123.855" height="123.855"/>
        </clipPath>
        <g clip-path="url(#_clip1)">
            <g transform="matrix(1,0,0,1,-136.417,-173.458)">
                <g transform="matrix(72,0,0,72,133.323,247.018)">
                    <path d="M0.559,-0.452L0.171,-0.313L0.559,-0.175L0.559,-0.053L0.043,-0.256L0.043,-0.371L0.559,-0.574L0.559,-0.452Z" style="fill:rgb(51,51,51);fill-rule:nonzero;"/>
                </g>
                <g transform="matrix(72,0,0,72,176.671,247.018)">
                    <path d="M0.439,-0.729L0.547,-0.729L0.163,0.093L0.055,0.093L0.439,-0.729Z" style="fill:rgb(52,101,164);fill-rule:nonzero;"/>
                </g>
                <g transform="matrix(72,0,0,72,220.019,247.018)">
                    <path d="M0.043,-0.452L0.043,-0.574L0.559,-0.371L0.559,-0.256L0.043,-0.053L0.043,-0.175L0.431,-0.313L0.043,-0.452Z" style="fill:rgb(51,51,51);fill-rule:nonzero;"/>
                </g>
            </g>
        </g>
    </g>
</svg>
